<?xml version="1.0" encoding="UTF-8"?>
<svg id="Logos_Déclinaison" data-name="Logos Déclinaison" xmlns="http://www.w3.org/2000/svg" viewBox="0 0 333.88 90.58">
  <defs>
    <style>
      .cls-1 {
        stroke: #11CBD7;
        stroke-miterlimit: 10;
        stroke-width: 2px;
      }

      .cls-1, .cls-2 {
        fill: #fff;
      }

      .cls-3 {
        fill: #11CBD7;
      }

      .cls-3, .cls-2 {
        stroke-width: 0px;
      }
    </style>
  </defs>
  <g>
    <path class="cls-3" d="m140.72,59.87c0,20-44.16,19.29-64.16,19.29s-36.21-16.21-36.21-36.21S57.67.16,76.56,6.73c23.58,8.2,64.16,33.13,64.16,53.13Z"/>
    <g>
      <path class="cls-2" d="m86.6,57.77h-11.46l-2,6.48h-8.94l12.73-34.7h7.86l12.82,34.7h-8.98l-2.03-6.48Zm-9.46-6.46h7.46l-3.74-12.04-3.72,12.04Z"/>
      <path class="cls-2" d="m109.05,64.25h-8.34V29.55h8.34v34.7Z"/>
    </g>
    <circle class="cls-1" cx="104.88" cy="31.74" r="5.4"/>
  </g>
  <g>
    <path class="cls-3" d="m173.78,35.15h-9.88v29.21h-7.94v-29.21h-9.7v-4.04c0-1.46,1.18-2.64,2.64-2.64h24.88v6.68Z"/>
    <path class="cls-3" d="m189.88,61.47c-1.61,2.25-3.79,3.38-6.54,3.38s-4.72-.85-6.1-2.55c-1.38-1.7-2.07-4.14-2.07-7.33v-13.88c0-1.88,1.52-3.4,3.4-3.4h4.22v17.33c0,2.28,1.02,3.43,3.05,3.43,1.75,0,2.99-.68,3.73-2.05v-15.38c0-1.84,1.49-3.33,3.33-3.33h4.34v26.67h-7.15l-.23-2.88Z"/>
    <path class="cls-3" d="m210.31,31.06v6.63h4.03v5.77h-4.03v12.2c0,1,.17,1.7.5,2.09.33.39.99.59,1.97.59.75,0,1.39-.05,1.9-.15v5.94c-1.37.48-2.8.71-4.3.71-2.62,0-4.56-.67-5.81-2.02-1.25-1.35-1.88-3.39-1.88-6.14v-13.23h-3.12v-5.77h3.12v-3.31c0-1.83,1.49-3.32,3.32-3.32h4.3Z"/>
    <path class="cls-3" d="m215.69,50.77c0-2.66.48-5.03,1.42-7.11.95-2.08,2.31-3.68,4.09-4.79s3.87-1.68,6.27-1.68c3.66,0,6.55,1.24,8.66,3.71,2.11,2.47,3.17,5.84,3.17,10.09v.29c0,4.16-1.06,7.46-3.18,9.9-2.12,2.44-4.99,3.66-8.61,3.66s-6.28-1.14-8.39-3.41c-2.11-2.28-3.25-5.36-3.42-9.25l-.02-1.41Zm7.62.52c0,2.46.35,4.27,1.06,5.42.71,1.15,1.76,1.72,3.14,1.72,2.71,0,4.1-2.28,4.16-6.83v-.84c0-4.78-1.4-7.17-4.21-7.17-2.55,0-3.93,2.06-4.14,6.19l-.02,1.5Z"/>
    <path class="cls-3" d="m257.46,45.2l-2.51-.2c-2.4,0-3.94.82-4.61,2.46v16.88h-7.62v-23.54c0-1.73,1.4-3.12,3.12-3.12h4.02l.25,3.43c1.28-2.61,3.07-3.92,5.36-3.92.81,0,1.52.1,2.13.3l-.14,7.71Z"/>
  </g>
</svg>